<svg xmlns="http://www.w3.org/2000/svg" viewBox="0 0 64 64">
  <defs>
    <linearGradient id="g" x1="0" y1="0" x2="1" y2="1">
      <stop offset="0" stop-color="#b23a2c"/>
      <stop offset="1" stop-color="#8e2437"/>
    </linearGradient>
  </defs>
  <rect width="64" height="64" rx="14" fill="url(#g)"/>
  <path fill="#fff" d="M32 10 C34 26 38 30 54 32 C38 34 34 38 32 54 C30 38 26 34 10 32 C26 30 30 26 32 10 Z"/>
  <path fill="#fff" opacity="0.9" d="M49 8 C49.8 13 50.9 14.1 56 15 C50.9 15.9 49.8 17 49 22 C48.2 17 47.1 15.9 42 15 C47.1 14.1 48.2 13 49 8 Z"/>
  <circle cx="15" cy="49" r="2.6" fill="#fff" opacity="0.85"/>
</svg>
